<svg id="Camada_1" data-name="Camada 1" xmlns="http://www.w3.org/2000/svg" viewBox="0 0 405 95"><defs><style>.cls-1{fill:#fff;}</style></defs><title>macambira-w</title><path class="cls-1" d="M57.89,73.56l-3.1-.09L55.13,53,53.41,73.47,45.3,73.3l5.09-35.38L36.15,70.19l-2.93-7.5L45.81,27.83,32.27,60.27,31,56.82l2.16-5.35a5.34,5.34,0,0,1-1.38,1.77A6.51,6.51,0,0,0,30.28,55l-7.5-19.42.69,32.1h-4L18.38,65A10.72,10.72,0,0,0,18,67.69l-2.42.09L13.8,45.26V67.78H11.13l.52-48.84L2.5,18.51l.09-5.35L14.41,13,2.59,12l.08-2c.81-.12,1.57-.26,2.29-.43a9.4,9.4,0,0,1,2.29-.26L2.67,8.76l.09-3.45L18.2,3,27,26,19.93,2.72l3.54-.52,9.66,31.49L43.92,6.08l3.45.35-5,14.32L48.83,6.52l10.27.77Z"/><path class="cls-1" d="M98.53,74.25l-2.24-17,.52,17.26L91,75.37a5.48,5.48,0,0,0-.7-1.73,4.17,4.17,0,0,1-.6-1.64v3.54l-2.24.35-.61-8.37L86,76.06l-3.19.52,1.38-29.25-3.8.26V39.48l11.82,1.46-2-19.84-2.68.34-1.38-6,.09,6.22-6.82.94L77,39.13l2.76.26c-.11,1.38-.2,2.76-.26,4.14s-.11,2.76-.17,4.14h-.78L76.27,46a3.21,3.21,0,0,1-.13.9,9.8,9.8,0,0,0-.21,1L74,48l-1.12-7.6L73,48l-1.46.08.6,16.57-6.3.17V56.39l-1,8.54H62.21L70,17.56l-6.38.26,2.15-7,7.51-.95-7.16-.26L67,6.86l15.45.26L67.47,5.22l1.12-3.79L95.25,3.15l7.25,70.58Z"/><path class="cls-1" d="M146.68,18.42c0,1.15.07,2.29,0,3.41s-.07,2.14-.13,3.06-.12,2-.17,2.94l-1.3.26-.6-9.58c-.12,1.61-.22,3.23-.3,4.87s-.19,3.3-.3,5l-1.39.25a4.11,4.11,0,0,0-.17-1.25,9.37,9.37,0,0,1-.26-1.08l-.86,2.59-8.8,1.73.95-4.75c.29-1.32.53-2.63.73-3.92s.33-2.35.39-3.15l-14,2.85c0,1.72-.08,3.65-.08,5.78q0,2.76.13,6.34t.47,7.72q.44,4.14.73,7.81c.2,2.44.39,4.59.56,6.43.23,2.13.44,4.08.61,5.86l8.71-2.41c0-1-.14-2.06-.26-3.24s-.23-2.25-.34-3.23c-.17-1.15-.35-2.3-.52-3.45l3.63.08,1,12.25.43-12.25,6,.09,1.2,2.16.69-2.16,2.59.08c-.34,1.27-.72,2.62-1.12,4.06-.34,1.21-.73,2.53-1.16,4s-.94,2.85-1.51,4.23-1,2.41-1.51,3.45-.94,2-1.34,2.76a22.45,22.45,0,0,1-1.38,2.41l-20.62-2.58-2.85-9.41,1.64,9.23-5.52-.69q-.53-2.14-1.12-4.91c-.35-1.56-.75-3.44-1.21-5.66s-1-4.7-1.47-7.46-1-5.59-1.51-8.5-.91-5.56-1.25-8c-.4-2.82-.78-5.58-1.12-8.28.11-.29.26-.61.43-.95a8.32,8.32,0,0,1,.52-1c.23-.4.48-.86.77-1.38L112,57.34,106,18.51c.57-.92,1.16-1.9,1.77-2.93a26.27,26.27,0,0,1,2.11-3.11c.35-.46.72-.93,1.12-1.42s.78-1,1.12-1.43L123.81,11l-11-2.24a10.11,10.11,0,0,0,.78-.86,10.19,10.19,0,0,1,.78-.87l19.93,2.42-18.73-3.8c.52-.51,1-1,1.39-1.42s.74-.79,1-1.08l1-.95L145.81,8c.12.92.23,1.93.35,3s.21,2.09.3,3.32S146.62,16.93,146.68,18.42Zm-33.14,4.4-1,4.84c.41,2.93.82,5.86,1.26,8.8s.84,5.86,1.25,8.8Z"/><path class="cls-1" d="M184.38,74.25l-2.24-17,.52,17.26-5.78.86a5.69,5.69,0,0,0-.69-1.73,4,4,0,0,1-.61-1.64v3.54l-2.24.35-.61-8.37-.86,8.54-3.19.52,1.38-29.25-3.8.26V39.48l11.82,1.46-2-19.84-2.68.34-1.38-6,.09,6.22-6.82.94-2.5,16.57,2.76.26c-.11,1.38-.2,2.76-.26,4.14s-.11,2.76-.17,4.14h-.78L162.12,46a3.21,3.21,0,0,1-.13.9,9.8,9.8,0,0,0-.21,1l-1.9.17-1.12-7.6.08,7.6-1.46.08.6,16.57-6.3.17V56.39l-1,8.54h-2.67l7.76-47.37-6.38.26,2.15-7,7.51-.95-7.16-.26.86-2.76,15.45.26-14.93-1.9,1.12-3.79L181.1,3.15l7.25,70.58Z"/><path class="cls-1" d="M243.4,73.56l-3.11-.09L240.64,53l-1.73,20.45-8.11-.17,5.09-35.38L221.65,70.19l-2.93-7.5,12.6-34.86L217.77,60.27l-1.29-3.45,2.15-5.35a5.09,5.09,0,0,1-1.38,1.77A6.29,6.29,0,0,0,215.79,55l-7.51-19.42.69,32.1h-4L203.88,65a11.53,11.53,0,0,0-.26,1.33,9.75,9.75,0,0,0-.08,1.34l-2.42.09-1.81-22.52V67.78h-2.68l.52-48.84L188,18.51l.09-5.35L199.91,13l-11.82-1,.09-2c.8-.12,1.56-.26,2.28-.43a9.4,9.4,0,0,1,2.29-.26l-4.57-.52.08-3.45L203.71,3l8.8,23-7.08-23.3L209,2.2l9.66,31.49L229.42,6.08l3.45.35-5,14.32,6.47-14.23,10.27.77Z"/><path class="cls-1" d="M282.91,69.16l-2.07-.09,4-13-5.43,13h-3.8a11.64,11.64,0,0,1,.78-1,2.45,2.45,0,0,0,.52-1L272.22,69l-25.54-.25-.09-1.3L255,66a33,33,0,0,1-4.23.09,24.41,24.41,0,0,0-4.14.17l-.17-4.48a6.2,6.2,0,0,0,1.68-.26,2.56,2.56,0,0,1,1.42-.09l-3.19-1L246,50.43l6.47.09L252,31.45a13.22,13.22,0,0,0,.6,1.64,17.29,17.29,0,0,0,.78,1.55l-1.73-16.82-.09-3.8,2.08-2.33a2.68,2.68,0,0,0-1.08.39,4.84,4.84,0,0,1-1,.48l-.08-3.11,11-2.93c-1.73.23-3.46.47-5.18.73s-3.42.5-5.09.73a1.18,1.18,0,0,1-.69.18l-.09-2.85c1.21-.17,2.47-.35,3.8-.52,1.15-.11,2.44-.26,3.88-.43S262,4,263.41,3.93c1.67-.12,3.28-.2,4.84-.26l4.14-.17c1.44-.06,2.76-.09,4-.09l.34.35.39.38c.14.15.3.33.48.56q1.29,1.9,2.54,3.76l2.46,3.66-.09-1.63c.64.74,1.24,1.48,1.82,2.2s1.09,1.39,1.55,2a25.32,25.32,0,0,1,1.55,2.07c-.46.92-1,1.87-1.55,2.85-.46.81-1,1.73-1.55,2.76s-1.18,2.07-1.82,3.11-1.23,1.93-1.81,2.85-1.09,1.69-1.55,2.33-1.12,1.43-1.64,2.07c.57.46,1.21.94,1.9,1.46l2.11,1.56c.78.57,1.65,1.23,2.63,2a52.55,52.55,0,0,1-.82,5.78,42.7,42.7,0,0,0-.73,5.61q.78-2.6,1.51-5.13t1.51-5.14a30.39,30.39,0,0,1,2.42,2c.69.63,1.29,1.18,1.81,1.64L291.46,44ZM249.7,61.48a.26.26,0,0,0-.18-.09Zm21.91-8.37a9.28,9.28,0,0,0-.08-3.76c-.29-1.17-.58-2.34-.87-3.49a11.75,11.75,0,0,0-.34-2,3.24,3.24,0,0,1-.26-.69l-7-.35-2.42-9.32,1.21,9.23-3.36-.17,1.46,18,9.41-1.2c.23-.81.46-1.7.69-2.68.17-.8.34-1.72.52-2.76a29.7,29.7,0,0,0,.34-3v-.6c.12.46.23.92.35,1.38S271.5,52.65,271.61,53.11Zm4.57-30.8a10.39,10.39,0,0,0-.56-2.16c-.25-.69-.53-1.35-.82-2a21.11,21.11,0,0,0-1.12-2l-8.37.95.26,7q-.17-.44-.3-.87a8.33,8.33,0,0,1-.22-.86l.52,5.27h.17v.17l10.19.52c.11-.64.2-1.27.25-1.9s.1-1.22.13-1.94A10.92,10.92,0,0,0,276.18,22.31Z"/><path class="cls-1" d="M310.7,68,304,69.16l-1.9-9.75.08,10-6.55,1.12L291.89,5.22l3.88.43,2.42,35.55.43,2L298,5.91l2.25.26c.11,1.38.3,2.79.56,4.23s.53,2.9.82,4.4l.95-8.46,6.73.78v13l1.46-12.94,2.76.34Z"/><path class="cls-1" d="M376.36,81.32a29,29,0,0,1-.18,3.41c-.11,1-.23,1.91-.34,2.72a19.69,19.69,0,0,1-.6,2.41l-6.56,1-.35-1.64-3.28,2.16-14.84,2.24c-.23-.17-.51-.37-.86-.6s-.65-.49-1.08-.78a12.68,12.68,0,0,1-1.42-1.12l-.78-10.18-.69,8.89-1.72-1.73a4.74,4.74,0,0,0-.52-.6l1-23.64L341.76,85.9c-1.15-1.56-2-2.74-2.5-3.54l-.78-1.3,4.83-29.5a8.53,8.53,0,0,0-1-.87,13.2,13.2,0,0,0-1.21-.86c-.46-.29-1-.57-1.56-.86a13.79,13.79,0,0,0-1.42-.61c-.49-.17-1-.31-1.42-.43l.43-11.3,2.33.6c.34-.8.72-1.72,1.12-2.76s.72-2.07,1.12-3.45.78-3,1.12-4.75a2.47,2.47,0,0,0,.09-.64A2.6,2.6,0,0,1,343,25l1.63,3.88L344,17.65a25.92,25.92,0,0,0,.26-2.94V13.59l-15.19,2.07,2.59,19.59,4.14,1q.18,5.88.78,11.65a3.67,3.67,0,0,0-.73-.21,4.19,4.19,0,0,1-.56-.13,2.33,2.33,0,0,0-.52-.09L335.11,68h-4l-.34-9.15-1,9.15H314.58l-.09-3.46a3.68,3.68,0,0,0,1.12-.51l1-.69-2.16-.26V59.58l5.18.34-5-1.55h-.26V55.52l5.78,1.13-.95-46.6,12.08-2.76-6,.52c-2,.17-4,.32-6,.43l-.09-3.19,5-.6q2.32-.27,5.43-.48c2.07-.14,4.32-.21,6.73-.21,1.67-.06,3.24-.08,4.7,0s2.81.07,4,.13l3.62,4.4-1.9-4.31c1.73.06,3.14.14,4.23.26.63,0,1.15.08,1.55.08a40.65,40.65,0,0,1,2.25,4.23q.94,2.07,2.07,5T359,20.32q1,3.54,1.47,6.39c.35,1.89.6,3.51.78,4.83.23,1.55.37,3,.43,4.23L357.2,38q-.34-3.88-.95-7.51T355,23.25l.69,7.6q.35,3.8.78,7.59l-10.19,5.09a10.9,10.9,0,0,1,1.21.43,10,10,0,0,1,1.21.52q.69.35,1.47.78l1.2,11c0-1.72,0-3.46.05-5.22s0-3.49-.13-5.22l1.34.86c.43.29.79.55,1.07.78a5.56,5.56,0,0,1,.95.78l.61,39.25,9.06-7.16-2.94-7.59,2.68.09a21.45,21.45,0,0,0,1,2.11c.41.72.78,1.42,1.13,2.11l-1-4.22,10.35.34c.12.63.26,1.35.44,2.16s.21,1.54.3,2.54S376.36,80.06,376.36,81.32ZM325.19,49.74q-.26-6-.47-12t-.91-11.82V45.08Z"/><path class="cls-1" d="M398.53,74.25l-2.24-17,.52,17.26-5.79.86a5.22,5.22,0,0,0-.69-1.73,4.17,4.17,0,0,1-.6-1.64v3.54l-2.24.35-.61-8.37L386,76.06l-3.19.52,1.38-29.25-3.8.26V39.48l11.82,1.46-2-19.84-2.68.34-1.38-6,.09,6.22-6.82.94L377,39.13l2.76.26c-.11,1.38-.2,2.76-.26,4.14s-.11,2.76-.17,4.14h-.78L376.27,46a3.21,3.21,0,0,1-.13.9,7.69,7.69,0,0,0-.21,1L374,48l-1.12-7.6L373,48l-1.47.08.61,16.57-6.3.17V56.39l-.95,8.54h-2.67L370,17.56l-6.38.26,2.15-7,7.51-.95-7.16-.26L367,6.86l15.45.26-14.93-1.9,1.12-3.79,26.66,1.72,7.25,70.58Z"/></svg>